<svg width="241" height="80" viewBox="0 0 241 80" fill="none" xmlns="http://www.w3.org/2000/svg">
<g filter="url(#filter0_d_2554_763)">
<rect x="12.5" y="4" width="216" height="56" rx="28" fill="white"/>
<g clip-path="url(#clip0_2554_763)">
<path d="M40.5 42C46.023 42 50.5 37.523 50.5 32C50.5 26.477 46.023 22 40.5 22C34.977 22 30.5 26.477 30.5 32C30.5 37.523 34.977 42 40.5 42ZM40.5 44C33.873 44 28.5 38.627 28.5 32C28.5 25.373 33.873 20 40.5 20C47.127 20 52.5 25.373 52.5 32C52.5 38.627 47.127 44 40.5 44Z" fill="#6B7280"/>
<path d="M38.5 37L44.5 32L38.5 27V37Z" fill="#6B7280"/>
</g>
<path d="M72.0584 34.4062C72.0584 34.7865 71.9803 35.1432 71.8241 35.4766C71.673 35.8099 71.4673 36.1016 71.2069 36.3516C70.9517 36.6016 70.6522 36.7995 70.3084 36.9453C69.9699 37.0859 69.6105 37.1562 69.2303 37.1562H68.4256C68.0454 37.1562 67.6834 37.0859 67.3397 36.9453C67.0011 36.7995 66.7017 36.6016 66.4413 36.3516C66.186 36.1016 65.9803 35.8099 65.8241 35.4766C65.673 35.1432 65.5975 34.7865 65.5975 34.4062V33.9609L66.6053 33.7969V34.4062C66.6053 34.6562 66.6548 34.8906 66.7538 35.1094C66.8579 35.3229 66.9959 35.513 67.1678 35.6797C67.3397 35.8411 67.5376 35.9688 67.7616 36.0625C67.9907 36.1562 68.2303 36.2031 68.4803 36.2031H69.1834C69.4334 36.2031 69.6704 36.1562 69.8944 36.0625C70.1183 35.9688 70.3163 35.8411 70.4881 35.6797C70.66 35.513 70.7954 35.3229 70.8944 35.1094C70.9985 34.8906 71.0506 34.6562 71.0506 34.4062V34.0703C71.0506 33.6849 70.9751 33.3646 70.8241 33.1094C70.673 32.8542 70.4725 32.638 70.2225 32.4609C69.9725 32.2786 69.6886 32.125 69.3709 32C69.0584 31.875 68.7355 31.75 68.4022 31.625C68.0689 31.5 67.7433 31.362 67.4256 31.2109C67.1131 31.0599 66.8319 30.8724 66.5819 30.6484C66.3319 30.4193 66.1314 30.1406 65.9803 29.8125C65.8293 29.4844 65.7538 29.0807 65.7538 28.6016V28.3906C65.7538 28.0104 65.8241 27.6536 65.9647 27.3203C66.1105 26.987 66.3084 26.6953 66.5584 26.4453C66.8084 26.1953 67.1001 26 67.4334 25.8594C67.772 25.7135 68.1314 25.6406 68.5116 25.6406H69.2303C69.6105 25.6406 69.9673 25.7135 70.3006 25.8594C70.634 26 70.9256 26.1953 71.1756 26.4453C71.4256 26.6953 71.6209 26.987 71.7616 27.3203C71.9074 27.6536 71.9803 28.0104 71.9803 28.3906V28.6797L70.9725 28.8438V28.3906C70.9725 28.1406 70.9256 27.9089 70.8319 27.6953C70.7381 27.4766 70.6105 27.2865 70.4491 27.125C70.2876 26.9635 70.0975 26.8359 69.8788 26.7422C69.6652 26.6484 69.4334 26.6016 69.1834 26.6016H68.5584C68.3084 26.6016 68.0741 26.6484 67.8553 26.7422C67.6418 26.8359 67.4517 26.9635 67.285 27.125C67.1235 27.2865 66.9959 27.4766 66.9022 27.6953C66.8084 27.9089 66.7616 28.1406 66.7616 28.3906V28.6016C66.7616 28.9609 66.8371 29.263 66.9881 29.5078C67.1392 29.7526 67.3397 29.9635 67.5897 30.1406C67.8397 30.3125 68.1209 30.4635 68.4334 30.5938C68.7511 30.7188 69.0767 30.849 69.41 30.9844C69.7433 31.1146 70.0663 31.2604 70.3788 31.4219C70.6965 31.5781 70.9803 31.7734 71.2303 32.0078C71.4803 32.237 71.6808 32.5182 71.8319 32.8516C71.9829 33.1849 72.0584 33.5911 72.0584 34.0703V34.4062ZM79.4138 34.8047C79.4138 35.1276 79.3513 35.4323 79.2263 35.7188C79.1065 36.0052 78.9398 36.2552 78.7263 36.4688C78.5127 36.6823 78.2627 36.8516 77.9763 36.9766C77.6898 37.0964 77.3851 37.1562 77.0622 37.1562H76.4216C76.0986 37.1562 75.794 37.0964 75.5075 36.9766C75.221 36.8516 74.971 36.6823 74.7575 36.4688C74.544 36.2552 74.3747 36.0052 74.2497 35.7188C74.1299 35.4323 74.07 35.1276 74.07 34.8047V31.1953C74.07 30.8724 74.1299 30.5677 74.2497 30.2812C74.3747 29.9948 74.544 29.7448 74.7575 29.5312C74.971 29.3177 75.221 29.151 75.5075 29.0312C75.794 28.9062 76.0986 28.8438 76.4216 28.8438H77.0622C77.3851 28.8438 77.6898 28.9062 77.9763 29.0312C78.2627 29.151 78.5127 29.3177 78.7263 29.5312C78.9398 29.7448 79.1065 29.9948 79.2263 30.2812C79.3513 30.5677 79.4138 30.8724 79.4138 31.1953V33.0781H75.0309V34.8594C75.0309 35.0521 75.0674 35.2344 75.1403 35.4062C75.2132 35.5729 75.3122 35.7188 75.4372 35.8438C75.5622 35.9688 75.708 36.0677 75.8747 36.1406C76.0466 36.2135 76.2289 36.25 76.4216 36.25H77.0622C77.2549 36.25 77.4346 36.2135 77.6013 36.1406C77.7731 36.0677 77.9216 35.9688 78.0466 35.8438C78.1716 35.7188 78.2705 35.5729 78.3434 35.4062C78.4164 35.2344 78.4528 35.0521 78.4528 34.8594V34.3281L79.4138 34.4844V34.8047ZM78.4528 31.1406C78.4528 30.9479 78.4164 30.7682 78.3434 30.6016C78.2705 30.4297 78.1716 30.2812 78.0466 30.1562C77.9216 30.0312 77.7731 29.9323 77.6013 29.8594C77.4346 29.7865 77.2549 29.75 77.0622 29.75H76.4216C76.2289 29.75 76.0466 29.7865 75.8747 29.8594C75.708 29.9323 75.5622 30.0312 75.4372 30.1562C75.3122 30.2812 75.2132 30.4297 75.1403 30.6016C75.0674 30.7682 75.0309 30.9479 75.0309 31.1406V32.3281H78.4528V31.1406ZM86.8394 34.8047C86.8394 35.1276 86.7769 35.4323 86.6519 35.7188C86.5321 36.0052 86.3654 36.2552 86.1519 36.4688C85.9383 36.6823 85.6883 36.8516 85.4019 36.9766C85.1154 37.0964 84.8107 37.1562 84.4878 37.1562H83.8472C83.5243 37.1562 83.2196 37.0964 82.9331 36.9766C82.6467 36.8516 82.3967 36.6823 82.1831 36.4688C81.9696 36.2552 81.8003 36.0052 81.6753 35.7188C81.5555 35.4323 81.4956 35.1276 81.4956 34.8047V31.1953C81.4956 30.8724 81.5555 30.5677 81.6753 30.2812C81.8003 29.9948 81.9696 29.7448 82.1831 29.5312C82.3967 29.3177 82.6467 29.151 82.9331 29.0312C83.2196 28.9062 83.5243 28.8438 83.8472 28.8438H84.4878C84.8107 28.8438 85.1154 28.9062 85.4019 29.0312C85.6883 29.151 85.9383 29.3177 86.1519 29.5312C86.3654 29.7448 86.5321 29.9948 86.6519 30.2812C86.7769 30.5677 86.8394 30.8724 86.8394 31.1953V33.0781H82.4566V34.8594C82.4566 35.0521 82.493 35.2344 82.5659 35.4062C82.6389 35.5729 82.7378 35.7188 82.8628 35.8438C82.9878 35.9688 83.1336 36.0677 83.3003 36.1406C83.4722 36.2135 83.6545 36.25 83.8472 36.25H84.4878C84.6805 36.25 84.8602 36.2135 85.0269 36.1406C85.1988 36.0677 85.3472 35.9688 85.4722 35.8438C85.5972 35.7188 85.6961 35.5729 85.7691 35.4062C85.842 35.2344 85.8784 35.0521 85.8784 34.8594V34.3281L86.8394 34.4844V34.8047ZM85.8784 31.1406C85.8784 30.9479 85.842 30.7682 85.7691 30.6016C85.6961 30.4297 85.5972 30.2812 85.4722 30.1562C85.3472 30.0312 85.1988 29.9323 85.0269 29.8594C84.8602 29.7865 84.6805 29.75 84.4878 29.75H83.8472C83.6545 29.75 83.4722 29.7865 83.3003 29.8594C83.1336 29.9323 82.9878 30.0312 82.8628 30.1562C82.7378 30.2812 82.6389 30.4297 82.5659 30.6016C82.493 30.7682 82.4566 30.9479 82.4566 31.1406V32.3281H85.8784V31.1406ZM93.0109 27.0781V25.7969H94.1281V27.0781H93.0109ZM93.0891 37V29H94.05V37H93.0891ZM99.3741 37C99.0824 37 98.8064 36.9453 98.5459 36.8359C98.2907 36.7266 98.0668 36.5755 97.8741 36.3828C97.6866 36.1901 97.5355 35.9661 97.4209 35.7109C97.3116 35.4557 97.2569 35.1823 97.2569 34.8906V29.9141H95.8194V29H97.2569V27.0781L98.2178 26.9219V29H100.249V29.9141H98.2178V34.9375C98.2178 35.099 98.2465 35.25 98.3038 35.3906C98.3663 35.526 98.4496 35.6458 98.5538 35.75C98.6579 35.8542 98.7803 35.9375 98.9209 36C99.0616 36.0573 99.2126 36.0859 99.3741 36.0859H100.249V37H99.3741ZM106.272 27.0781V25.7969H107.389V27.0781H106.272ZM106.35 37V29H107.311V37H106.35ZM114.104 37V31.1406C114.104 30.9479 114.068 30.7682 113.995 30.6016C113.922 30.4297 113.823 30.2812 113.698 30.1562C113.573 30.0312 113.424 29.9323 113.253 29.8594C113.086 29.7865 112.906 29.75 112.713 29.75H112.073C111.88 29.75 111.698 29.7865 111.526 29.8594C111.359 29.9323 111.213 30.0312 111.088 30.1562C110.963 30.2812 110.864 30.4297 110.792 30.6016C110.719 30.7682 110.682 30.9479 110.682 31.1406V37H109.721V29H110.042L110.565 29.8125C110.784 29.5156 111.057 29.2812 111.385 29.1094C111.719 28.9323 112.081 28.8438 112.471 28.8438H112.713C113.036 28.8438 113.341 28.9062 113.628 29.0312C113.914 29.151 114.164 29.3177 114.378 29.5312C114.591 29.7448 114.758 29.9948 114.878 30.2812C115.003 30.5677 115.065 30.8724 115.065 31.1953V37H114.104ZM126.018 37L125.487 36.2031C125.268 36.4896 124.994 36.7214 124.666 36.8984C124.338 37.0703 123.979 37.1562 123.588 37.1562H123.346C123.023 37.1562 122.718 37.0964 122.432 36.9766C122.145 36.8516 121.895 36.6823 121.682 36.4688C121.468 36.2552 121.299 36.0052 121.174 35.7188C121.054 35.4323 120.994 35.1276 120.994 34.8047V34.7266C120.994 34.4036 121.054 34.099 121.174 33.8125C121.299 33.526 121.468 33.276 121.682 33.0625C121.895 32.849 122.145 32.6823 122.432 32.5625C122.718 32.4375 123.023 32.375 123.346 32.375H125.377V31.1406C125.377 30.9479 125.341 30.7682 125.268 30.6016C125.195 30.4297 125.096 30.2812 124.971 30.1562C124.846 30.0312 124.698 29.9323 124.526 29.8594C124.359 29.7865 124.179 29.75 123.987 29.75H123.424C123.231 29.75 123.049 29.7865 122.877 29.8594C122.711 29.9323 122.565 30.0312 122.44 30.1562C122.315 30.2812 122.216 30.4297 122.143 30.6016C122.07 30.7682 122.033 30.9479 122.033 31.1406V31.4297L121.073 31.2734V31.1953C121.073 30.8724 121.132 30.5677 121.252 30.2812C121.377 29.9948 121.546 29.7448 121.76 29.5312C121.974 29.3177 122.224 29.151 122.51 29.0312C122.796 28.9062 123.101 28.8438 123.424 28.8438H123.987C124.309 28.8438 124.614 28.9062 124.901 29.0312C125.187 29.151 125.437 29.3177 125.651 29.5312C125.864 29.7448 126.031 29.9948 126.151 30.2812C126.276 30.5677 126.338 30.8724 126.338 31.1953V37H126.018ZM125.377 33.125H123.346C123.153 33.125 122.971 33.1615 122.799 33.2344C122.632 33.3073 122.487 33.4089 122.362 33.5391C122.237 33.6641 122.138 33.8125 122.065 33.9844C121.992 34.151 121.955 34.3307 121.955 34.5234V34.8594C121.955 35.0521 121.992 35.2344 122.065 35.4062C122.138 35.5729 122.237 35.7188 122.362 35.8438C122.487 35.9688 122.632 36.0677 122.799 36.1406C122.971 36.2135 123.153 36.25 123.346 36.25H123.987C124.179 36.25 124.359 36.2135 124.526 36.1406C124.698 36.0677 124.846 35.9688 124.971 35.8438C125.096 35.7188 125.195 35.5729 125.268 35.4062C125.341 35.2344 125.377 35.0521 125.377 34.8594V33.125ZM133.764 34.8047C133.764 35.1276 133.701 35.4323 133.576 35.7188C133.456 36.0052 133.29 36.2552 133.076 36.4688C132.863 36.6823 132.613 36.8516 132.326 36.9766C132.04 37.0964 131.735 37.1562 131.412 37.1562H130.772C130.449 37.1562 130.144 37.0964 129.858 36.9766C129.571 36.8516 129.321 36.6823 129.108 36.4688C128.894 36.2552 128.725 36.0052 128.6 35.7188C128.48 35.4323 128.42 35.1276 128.42 34.8047V31.1953C128.42 30.8724 128.48 30.5677 128.6 30.2812C128.725 29.9948 128.894 29.7448 129.108 29.5312C129.321 29.3177 129.571 29.151 129.858 29.0312C130.144 28.9062 130.449 28.8438 130.772 28.8438H131.412C131.735 28.8438 132.04 28.9062 132.326 29.0312C132.613 29.151 132.863 29.3177 133.076 29.5312C133.29 29.7448 133.456 29.9948 133.576 30.2812C133.701 30.5677 133.764 30.8724 133.764 31.1953V31.5156L132.803 31.6719V31.1406C132.803 30.9479 132.766 30.7682 132.693 30.6016C132.621 30.4297 132.522 30.2812 132.397 30.1562C132.272 30.0312 132.123 29.9323 131.951 29.8594C131.785 29.7865 131.605 29.75 131.412 29.75H130.772C130.579 29.75 130.397 29.7865 130.225 29.8594C130.058 29.9323 129.912 30.0312 129.787 30.1562C129.662 30.2812 129.563 30.4297 129.49 30.6016C129.417 30.7682 129.381 30.9479 129.381 31.1406V34.8594C129.381 35.0521 129.417 35.2344 129.49 35.4062C129.563 35.5729 129.662 35.7188 129.787 35.8438C129.912 35.9688 130.058 36.0677 130.225 36.1406C130.397 36.2135 130.579 36.25 130.772 36.25H131.412C131.605 36.25 131.785 36.2135 131.951 36.1406C132.123 36.0677 132.272 35.9688 132.397 35.8438C132.522 35.7188 132.621 35.5729 132.693 35.4062C132.766 35.2344 132.803 35.0521 132.803 34.8594V34.3281L133.764 34.4844V34.8047ZM138.76 37C138.468 37 138.192 36.9453 137.932 36.8359C137.676 36.7266 137.452 36.5755 137.26 36.3828C137.072 36.1901 136.921 35.9661 136.807 35.7109C136.697 35.4557 136.643 35.1823 136.643 34.8906V29.9141H135.205V29H136.643V27.0781L137.603 26.9219V29H139.635V29.9141H137.603V34.9375C137.603 35.099 137.632 35.25 137.689 35.3906C137.752 35.526 137.835 35.6458 137.939 35.75C138.044 35.8542 138.166 35.9375 138.307 36C138.447 36.0573 138.598 36.0859 138.76 36.0859H139.635V37H138.76ZM141.81 27.0781V25.7969H142.928V27.0781H141.81ZM141.888 37V29H142.849V37H141.888ZM150.603 34.8047C150.603 35.1276 150.541 35.4323 150.416 35.7188C150.296 36.0052 150.129 36.2552 149.916 36.4688C149.702 36.6823 149.452 36.8516 149.166 36.9766C148.879 37.0964 148.574 37.1562 148.252 37.1562H147.611C147.288 37.1562 146.983 37.0964 146.697 36.9766C146.41 36.8516 146.16 36.6823 145.947 36.4688C145.733 36.2552 145.564 36.0052 145.439 35.7188C145.319 35.4323 145.259 35.1276 145.259 34.8047V31.1953C145.259 30.8724 145.319 30.5677 145.439 30.2812C145.564 29.9948 145.733 29.7448 145.947 29.5312C146.16 29.3177 146.41 29.151 146.697 29.0312C146.983 28.9062 147.288 28.8438 147.611 28.8438H148.252C148.574 28.8438 148.879 28.9062 149.166 29.0312C149.452 29.151 149.702 29.3177 149.916 29.5312C150.129 29.7448 150.296 29.9948 150.416 30.2812C150.541 30.5677 150.603 30.8724 150.603 31.1953V34.8047ZM149.642 31.1406C149.642 30.9479 149.606 30.7682 149.533 30.6016C149.46 30.4297 149.361 30.2812 149.236 30.1562C149.111 30.0312 148.963 29.9323 148.791 29.8594C148.624 29.7865 148.444 29.75 148.252 29.75H147.611C147.418 29.75 147.236 29.7865 147.064 29.8594C146.897 29.9323 146.752 30.0312 146.627 30.1562C146.502 30.2812 146.403 30.4297 146.33 30.6016C146.257 30.7682 146.22 30.9479 146.22 31.1406V34.8594C146.22 35.0521 146.257 35.2344 146.33 35.4062C146.403 35.5729 146.502 35.7188 146.627 35.8438C146.752 35.9688 146.897 36.0677 147.064 36.1406C147.236 36.2135 147.418 36.25 147.611 36.25H148.252C148.444 36.25 148.624 36.2135 148.791 36.1406C148.963 36.0677 149.111 35.9688 149.236 35.8438C149.361 35.7188 149.46 35.5729 149.533 35.4062C149.606 35.2344 149.642 35.0521 149.642 34.8594V31.1406ZM157.068 37V31.1406C157.068 30.9479 157.031 30.7682 156.958 30.6016C156.886 30.4297 156.787 30.2812 156.662 30.1562C156.537 30.0312 156.388 29.9323 156.216 29.8594C156.05 29.7865 155.87 29.75 155.677 29.75H155.037C154.844 29.75 154.662 29.7865 154.49 29.8594C154.323 29.9323 154.177 30.0312 154.052 30.1562C153.927 30.2812 153.828 30.4297 153.755 30.6016C153.682 30.7682 153.646 30.9479 153.646 31.1406V37H152.685V29H153.005L153.529 29.8125C153.748 29.5156 154.021 29.2812 154.349 29.1094C154.682 28.9323 155.044 28.8438 155.435 28.8438H155.677C156 28.8438 156.305 28.9062 156.591 29.0312C156.878 29.151 157.128 29.3177 157.341 29.5312C157.555 29.7448 157.721 29.9948 157.841 30.2812C157.966 30.5677 158.029 30.8724 158.029 31.1953V37H157.068ZM163.958 32.3281C163.958 31.4583 164.041 30.6484 164.208 29.8984C164.375 29.1484 164.607 28.4505 164.903 27.8047C165.2 27.1536 165.552 26.5521 165.958 26C166.37 25.4427 166.818 24.9271 167.302 24.4531L167.864 25.0156C167.437 25.4583 167.041 25.9479 166.677 26.4844C166.318 27.0208 166.008 27.599 165.747 28.2188C165.487 28.8333 165.284 29.4844 165.138 30.1719C164.992 30.8594 164.919 31.5781 164.919 32.3281C164.919 33.0781 164.992 33.7969 165.138 34.4844C165.284 35.1719 165.487 35.8255 165.747 36.4453C166.008 37.0599 166.318 37.6354 166.677 38.1719C167.041 38.7083 167.437 39.1979 167.864 39.6406L167.302 40.2031C166.818 39.7292 166.37 39.2135 165.958 38.6562C165.552 38.1042 165.2 37.5026 164.903 36.8516C164.607 36.2005 164.375 35.5 164.208 34.75C164.041 34 163.958 33.1927 163.958 32.3281ZM172.181 26.6016C171.931 26.6016 171.696 26.6484 171.478 26.7422C171.264 26.8359 171.076 26.9635 170.915 27.125C170.754 27.2865 170.626 27.4766 170.532 27.6953C170.438 27.9089 170.392 28.1406 170.392 28.3906V28.8438L169.384 28.6797V28.3906C169.384 28.0104 169.454 27.6536 169.595 27.3203C169.741 26.987 169.938 26.6953 170.188 26.4453C170.438 26.1953 170.73 26 171.063 25.8594C171.397 25.7135 171.754 25.6406 172.134 25.6406H172.61C172.991 25.6406 173.347 25.7083 173.681 25.8438C174.019 25.9792 174.313 26.1745 174.563 26.4297C174.813 26.6849 175.009 26.9922 175.149 27.3516C175.295 27.7057 175.368 28.1068 175.368 28.5547C175.368 28.9974 175.3 29.4427 175.165 29.8906C175.035 30.3385 174.86 30.7786 174.642 31.2109C174.428 31.6432 174.181 32.0625 173.899 32.4688C173.623 32.875 173.339 33.2578 173.048 33.6172C172.366 34.4557 171.592 35.263 170.728 36.0391H175.446V37H169.142V36.2031C170.116 35.401 170.985 34.5703 171.751 33.7109C172.079 33.3411 172.399 32.9479 172.712 32.5312C173.024 32.1146 173.303 31.6875 173.548 31.25C173.793 30.8073 173.988 30.3594 174.134 29.9062C174.285 29.4479 174.36 28.9974 174.36 28.5547C174.36 28.2266 174.311 27.9401 174.212 27.6953C174.113 27.4505 173.98 27.2474 173.813 27.0859C173.647 26.9245 173.454 26.8047 173.235 26.7266C173.022 26.6432 172.798 26.6016 172.563 26.6016H172.181ZM189.821 37V31.1406C189.821 30.9479 189.784 30.7682 189.712 30.6016C189.639 30.4297 189.54 30.2812 189.415 30.1562C189.29 30.0312 189.141 29.9323 188.969 29.8594C188.803 29.7865 188.623 29.75 188.43 29.75H187.954C187.761 29.75 187.579 29.7865 187.407 29.8594C187.24 29.9323 187.092 30.0312 186.962 30.1562C186.837 30.2812 186.738 30.4297 186.665 30.6016C186.592 30.7682 186.555 30.9479 186.555 31.1406V37H185.602V31.1406C185.602 30.9479 185.566 30.7682 185.493 30.6016C185.42 30.4297 185.318 30.2812 185.188 30.1562C185.063 30.0312 184.915 29.9323 184.743 29.8594C184.576 29.7865 184.396 29.75 184.204 29.75H183.727C183.534 29.75 183.352 29.7865 183.18 29.8594C183.014 29.9323 182.868 30.0312 182.743 30.1562C182.618 30.2812 182.519 30.4297 182.446 30.6016C182.373 30.7682 182.337 30.9479 182.337 31.1406V37H181.376V29H181.696L182.219 29.8125C182.438 29.5156 182.712 29.2812 183.04 29.1094C183.373 28.9323 183.735 28.8438 184.126 28.8438H184.204C184.657 28.8438 185.066 28.9557 185.43 29.1797C185.795 29.4036 186.076 29.7005 186.274 30.0703C186.373 29.888 186.495 29.7214 186.641 29.5703C186.787 29.4193 186.949 29.2917 187.126 29.1875C187.303 29.0781 187.495 28.9948 187.704 28.9375C187.912 28.875 188.128 28.8438 188.352 28.8438H188.43C188.753 28.8438 189.058 28.9062 189.344 29.0312C189.631 29.151 189.881 29.3177 190.094 29.5312C190.308 29.7448 190.475 29.9948 190.594 30.2812C190.719 30.5677 190.782 30.8724 190.782 31.1953V37H189.821ZM193.106 27.0781V25.7969H194.223V27.0781H193.106ZM193.184 37V29H194.145V37H193.184ZM200.938 37V31.1406C200.938 30.9479 200.901 30.7682 200.828 30.6016C200.756 30.4297 200.657 30.2812 200.532 30.1562C200.407 30.0312 200.258 29.9323 200.086 29.8594C199.92 29.7865 199.74 29.75 199.547 29.75H198.907C198.714 29.75 198.532 29.7865 198.36 29.8594C198.193 29.9323 198.047 30.0312 197.922 30.1562C197.797 30.2812 197.698 30.4297 197.625 30.6016C197.552 30.7682 197.516 30.9479 197.516 31.1406V37H196.555V29H196.875L197.399 29.8125C197.618 29.5156 197.891 29.2812 198.219 29.1094C198.552 28.9323 198.914 28.8438 199.305 28.8438H199.547C199.87 28.8438 200.175 28.9062 200.461 29.0312C200.748 29.151 200.998 29.3177 201.211 29.5312C201.425 29.7448 201.591 29.9948 201.711 30.2812C201.836 30.5677 201.899 30.8724 201.899 31.1953V37H200.938ZM207.402 32.3281C207.402 33.1927 207.319 34 207.152 34.75C206.986 35.5 206.754 36.2005 206.457 36.8516C206.16 37.5026 205.806 38.1042 205.395 38.6562C204.988 39.2135 204.543 39.7292 204.059 40.2031L203.496 39.6406C203.929 39.1979 204.324 38.7083 204.684 38.1719C205.043 37.6354 205.353 37.0599 205.613 36.4453C205.874 35.8255 206.077 35.1719 206.223 34.4844C206.369 33.7969 206.442 33.0781 206.442 32.3281C206.442 31.5781 206.369 30.8594 206.223 30.1719C206.077 29.4844 205.874 28.8333 205.613 28.2188C205.353 27.599 205.043 27.0208 204.684 26.4844C204.324 25.9479 203.929 25.4583 203.496 25.0156L204.059 24.4531C204.543 24.9271 204.988 25.4427 205.395 26C205.806 26.5521 206.16 27.1536 206.457 27.8047C206.754 28.4505 206.986 29.1484 207.152 29.8984C207.319 30.6484 207.402 31.4583 207.402 32.3281Z" fill="#111827"/>
</g>
<defs>
<filter id="filter0_d_2554_763" x="0.5" y="0" width="240" height="80" filterUnits="userSpaceOnUse" color-interpolation-filters="sRGB">
<feFlood flood-opacity="0" result="BackgroundImageFix"/>
<feColorMatrix in="SourceAlpha" type="matrix" values="0 0 0 0 0 0 0 0 0 0 0 0 0 0 0 0 0 0 127 0" result="hardAlpha"/>
<feMorphology radius="4" operator="erode" in="SourceAlpha" result="effect1_dropShadow_2554_763"/>
<feOffset dy="8"/>
<feGaussianBlur stdDeviation="8"/>
<feColorMatrix type="matrix" values="0 0 0 0 0.109804 0 0 0 0 0.172549 0 0 0 0 0.25098 0 0 0 0.08 0"/>
<feBlend mode="normal" in2="BackgroundImageFix" result="effect1_dropShadow_2554_763"/>
<feBlend mode="normal" in="SourceGraphic" in2="effect1_dropShadow_2554_763" result="shape"/>
</filter>
<clipPath id="clip0_2554_763">
<rect width="24" height="24" fill="white" transform="translate(28.5 20)"/>
</clipPath>
</defs>
</svg>
